<svg xmlns="http://www.w3.org/2000/svg" width="32" height="32" viewBox="0 0 32 32">
  <defs>
    <linearGradient id="bg" x1="0" y1="0" x2="1" y2="1">
      <stop offset="0%" stop-color="#1e293b"/>
      <stop offset="100%" stop-color="#0f172a"/>
    </linearGradient>
  </defs>
  <rect width="32" height="32" rx="8" fill="url(#bg)"/>
  <path d="M12.5 6.8a1 1 0 0 1 1.2 0l.7.5a2 2 0 0 0 1.1.5l.8.1a1 1 0 0 1 1 1l.1.9a2 2 0 0 0 .5 1.1l.5.7a1 1 0 0 1 0 1.2l-.5.7a2 2 0 0 0-.5 1.1l-.1.9a1 1 0 0 1-1 1l-.9.1a2 2 0 0 0-1.1.5l-.7.5a1 1 0 0 1-1.2 0l-.7-.5a2 2 0 0 0-1.1-.5l-.9-.1a1 1 0 0 1-1-1l-.1-.9a2 2 0 0 0-.5-1.1l-.5-.7a1 1 0 0 1 0-1.2l.5-.7a2 2 0 0 0 .5-1.1l.1-.9a1 1 0 0 1 1-1l.9-.1a2 2 0 0 0 1.1-.5z" fill="white" opacity="0.9"/>
  <path d="M22 8v3M23.5 9.5h-3" stroke="white" stroke-width="1.5" stroke-linecap="round" opacity="0.6"/>
  <circle cx="8" cy="24" r="1.5" fill="white" opacity="0.5"/>
</svg>
